<svg width="32" height="32" viewBox="0 0 32 32" fill="none" xmlns="http://www.w3.org/2000/svg">
<g clip-path="url(#clip0_2001_7)">
<path d="M14.2933 0.117349C8.67158 0.704016 3.64843 4.40514 1.36491 9.64268C-0.106664 13.024 -0.35157 16.9173 0.693336 20.5016C1.984 24.9707 5.32267 28.7465 9.64267 30.6349C13.024 32.1065 16.9173 32.3514 20.5018 31.3065C25.8667 29.7598 30.0909 25.3549 31.4775 19.8825C33.6425 11.3067 28.3307 2.53804 19.7333 0.490683C17.8449 0.0426828 16.1818 -0.0748639 14.2933 0.117349ZM14.5067 10.0267C15.8716 11.84 17.024 13.3333 17.0667 13.3333C17.1093 13.3333 18.5284 11.84 20.2027 10.0267L23.264 6.72002H25.0027L24.6293 7.11511C24.416 7.33826 23.0293 8.84247 21.5467 10.4533C20.064 12.064 18.6133 13.6316 18.3249 13.92L17.8133 14.464L21.8133 19.7867C24.0107 22.72 25.8133 25.1516 25.8133 25.1951C25.8133 25.2484 24.5018 25.28 22.9116 25.28L20 25.2693L17.2907 21.6427C15.424 19.136 14.5493 18.058 14.464 18.1227C14.4 18.176 12.8849 19.8084 11.0933 21.7493L7.84 25.28H7.01824C6.56 25.28 6.18667 25.2583 6.18667 25.2267C6.18667 25.1951 7.88267 23.3383 9.95158 21.1093C12.0109 18.88 13.7176 17.0133 13.7382 16.9818C13.7493 16.9383 12.0533 14.624 9.97334 11.84C7.89334 9.06668 6.18667 6.77335 6.18667 6.75159C6.18667 6.7309 7.49824 6.72002 9.10934 6.72002H12.0316L14.5067 10.0267Z" fill="#9B1B30"/>
<path d="M8.82176 8.14933C8.86422 8.224 11.5516 11.8293 14.7733 16.1382L20.64 23.9891L21.9516 24C22.7625 24 23.2533 23.9573 23.2316 23.8933C23.2218 23.84 20.5442 20.2351 17.3018 15.8933L11.3916 8H10.0693C8.9711 8 8.74667 8.02176 8.82176 8.14933Z" fill="#9B1B30"/>
</g>
<defs>
<clipPath id="clip0_2001_7">
<rect width="32" height="32" fill="white"/>
</clipPath>
</defs>
</svg>
